# xmcd
#
# Track frame offsets:
#	150
#	8752
#	21627
#	31820
#	53552
#
# Disc length: 916 seconds
#
# Revision: 1
# Processed by: cddbd v1.5.1PL0 Copyright (c) Steve Scherf et al.
# Submitted via: CDex 1.50Beta5
#
DISCID=32039205
DTITLE=Various Artist - ピアノの絵本赤鼻のトナカイ
DYEAR=1900
DGENRE=
TTITLE0=赤鼻のトナカイ
TTITLE1=アルビノーニのアダージョ
TTITLE2=銀の鈴
TTITLE3=G線上のアリア
TTITLE4=スターダスト
EXTD=
EXTT0=
EXTT1=
EXTT2=
EXTT3=
EXTT4=
PLAYORDER=
